<?xml version="1.0" encoding="utf-8"?>
<!-- Generator: Adobe Illustrator 22.1.0, SVG Export Plug-In . SVG Version: 6.00 Build 0)  -->
<svg version="1.1" id="Layer_1" xmlns="http://www.w3.org/2000/svg" xmlns:xlink="http://www.w3.org/1999/xlink" x="0px" y="0px"
	 viewBox="0 0 512 512" style="enable-background:new 0 0 512 512;" xml:space="preserve">
<g>
	<path d="M176.9,133.7c0,20.6-14.4,43.2-63.7,43.2H51.6L70,98.8h59.6C166.6,98.8,176.9,119.3,176.9,133.7z M287.9,98.8h-59.6
		l-16.4,78.1h61.6c47.3,0,61.6-22.6,61.6-43.2C335.2,119.3,324.9,98.8,287.9,98.8L287.9,98.8z M109.1,213.9H49.5L31,292h61.6
		c49.3,0,63.7-20.6,63.7-43.2C156.4,234.5,146.1,213.9,109.1,213.9L109.1,213.9z M267.4,213.9h-59.6L191.3,292H253
		c47.3,0,61.6-20.6,61.6-43.2C314.6,234.5,304.3,213.9,267.4,213.9L267.4,213.9z M433.8,166.6h-59.6l-16.4,78.1h61.6
		c47.3,0,61.6-20.6,61.6-43.2C481.1,187.2,470.8,166.6,433.8,166.6z M409.2,287.8h-59.6l-16.4,78.1h61.6c49.3,0,61.6-20.6,61.6-43.2
		C456.4,308.4,446.2,287.8,409.2,287.8L409.2,287.8z M242.7,335.1h-59.6l-16.4,78.1h61.6c49.3,0,61.6-22.6,61.6-43.2
		C290,355.7,279.7,335.1,242.7,335.1L242.7,335.1z"/>
</g>
</svg>
